<svg width="18" height="16" viewBox="0 0 18 16" fill="none" xmlns="http://www.w3.org/2000/svg">
<path d="M15.2497 16.8557H15.1434C2.86216 16.1465 1.11841 5.73957 0.874656 2.56353C0.83656 2.06562 0.996958 1.57291 1.32057 1.19377C1.64418 0.814621 2.1045 0.580098 2.60028 0.541783C2.64986 0.538016 2.69966 0.536133 2.74966 0.536133H6.04341C6.29375 0.53589 6.53841 0.611147 6.74568 0.752156C6.95294 0.893165 7.11328 1.09343 7.20591 1.32701L8.15591 3.67452C8.24738 3.90271 8.27007 4.15286 8.22118 4.39389C8.17229 4.63493 8.05397 4.85623 7.88091 5.0303L6.54966 6.3798C6.75676 7.56695 7.3224 8.6614 8.16987 9.51474C9.01733 10.3681 10.1056 10.939 11.2872 11.1501L12.6434 9.80064C12.8193 9.62876 13.0418 9.51269 13.283 9.46693C13.5241 9.42116 13.7734 9.44772 13.9997 9.54329L16.3559 10.4911C16.585 10.587 16.7804 10.7493 16.9173 10.9572C17.0542 11.1652 17.1264 11.4093 17.1247 11.6586V14.9727C17.1247 15.4721 16.9271 15.9511 16.5755 16.3042C16.2239 16.6573 15.7469 16.8557 15.2497 16.8557ZM2.74966 1.79149C2.66758 1.79124 2.58626 1.80723 2.51034 1.83854C2.43441 1.86986 2.36538 1.91589 2.30716 1.974C2.24895 2.03211 2.20271 2.10116 2.17107 2.17722C2.13944 2.25328 2.12303 2.33485 2.12278 2.41728C2.12278 2.43486 2.12341 2.45222 2.12466 2.46938C2.41216 6.18522 4.25591 14.9727 15.2122 15.6004C15.3776 15.6103 15.5402 15.5539 15.6642 15.4435C15.7882 15.3331 15.8634 15.1777 15.8734 15.0116L15.8747 14.9727V11.6586L13.5184 10.7108L11.7247 12.4997L11.4247 12.462C5.98716 11.7778 5.24966 6.31704 5.24966 6.26054L5.21216 5.95926L6.98716 4.15783L6.04966 1.79149H2.74966Z" fill="#FFFDF5"/>
</svg>
