<svg width="8" height="5" viewBox="0 0 8 5" fill="none" xmlns="http://www.w3.org/2000/svg">
<path d="M7.54158 0.328686C7.48577 0.274172 7.41085 0.243652 7.33283 0.243652C7.25482 0.243652 7.1799 0.274172 7.12408 0.328686L3.99971 3.37431L0.875961 0.328685C0.820149 0.274171 0.745228 0.243652 0.667211 0.243652C0.589194 0.243652 0.514272 0.274171 0.458461 0.328685C0.431246 0.355183 0.409616 0.386864 0.394846 0.421858C0.380076 0.456853 0.372467 0.494451 0.372467 0.532435C0.372467 0.570419 0.380076 0.608018 0.394846 0.643012C0.409615 0.678007 0.431246 0.709688 0.458461 0.736185L3.78159 3.97494C3.83994 4.03182 3.91821 4.06365 3.99971 4.06365C4.08121 4.06365 4.15948 4.03182 4.21784 3.97494L7.54096 0.736185C7.56817 0.709688 7.5898 0.678007 7.60457 0.643012C7.61934 0.608018 7.62695 0.570419 7.62695 0.532435C7.62695 0.494452 7.61934 0.456853 7.60457 0.421859C7.5898 0.386864 7.56817 0.355183 7.54096 0.328686L7.54158 0.328686Z" fill="#FFFDF5" fill-opacity="0.8"/>
</svg>
