<svg width="21" height="20" viewBox="0 0 21 20" fill="none" xmlns="http://www.w3.org/2000/svg">
<g clip-path="url(#clip0_273_147)">
<path d="M9.77588 2.80558C10.9666 2.80448 12.1309 3.16032 13.1214 3.8281C14.112 4.49588 14.8843 5.44558 15.3408 6.55707C15.7972 7.66855 15.9172 8.89188 15.6855 10.0723C15.4539 11.2527 14.8811 12.3372 14.0395 13.1885C13.1979 14.0398 12.1254 14.6198 10.9577 14.8549C9.78993 15.0901 8.5794 14.97 7.47923 14.5097C6.37906 14.0494 5.43867 13.2697 4.77704 12.2692C4.11541 11.2687 3.76225 10.0923 3.76225 8.88891C3.76947 7.27872 4.40519 5.73647 5.53125 4.59736C6.65731 3.45825 8.18269 2.81434 9.77588 2.80558ZM9.77588 1.66669C8.36254 1.66669 6.98093 2.09026 5.80578 2.88385C4.63063 3.67744 3.71471 4.8054 3.17384 6.12508C2.63298 7.44477 2.49146 8.89692 2.76719 10.2979C3.04292 11.6989 3.72351 12.9857 4.7229 13.9958C5.72229 15.0058 6.99558 15.6937 8.38177 15.9724C9.76796 16.251 11.2048 16.108 12.5105 15.5614C13.8163 15.0147 14.9324 14.089 15.7176 12.9014C16.5028 11.7137 16.9219 10.3173 16.9219 8.88891C16.9219 6.97346 16.169 5.13646 14.8289 3.78203C13.4887 2.4276 11.6711 1.66669 9.77588 1.66669Z" fill="#7D7D7D"/>
<path d="M20.0398 18.4945L15.9886 14.3723L15.208 15.1556L19.2592 19.2778C19.3101 19.3296 19.3706 19.3708 19.4373 19.3989C19.5039 19.4271 19.5754 19.4417 19.6476 19.442C19.7198 19.4423 19.7914 19.4281 19.8582 19.4004C19.925 19.3727 19.9858 19.332 20.0371 19.2806C20.0883 19.2291 20.129 19.168 20.1569 19.1007C20.1848 19.0333 20.1993 18.9611 20.1995 18.8881C20.1998 18.8151 20.1858 18.7428 20.1584 18.6752C20.131 18.6077 20.0907 18.5463 20.0398 18.4945Z" fill="#7D7D7D"/>
</g>
<defs>
<clipPath id="clip0_273_147">
<rect x="0.799805" width="19.7889" height="20" rx="9.89446" fill="white"/>
</clipPath>
</defs>
</svg>
