<svg width="20" height="20" viewBox="0 0 20 20" fill="none" xmlns="http://www.w3.org/2000/svg">
<path d="M6.65737 2.91622C6.54834 3.02784 6.4873 3.17769 6.4873 3.33372C6.4873 3.48975 6.54834 3.6396 6.65737 3.75122L12.7486 9.99997L6.65737 16.2475C6.54834 16.3591 6.4873 16.5089 6.4873 16.665C6.4873 16.821 6.54834 16.9708 6.65737 17.0825C6.71037 17.1369 6.77373 17.1802 6.84372 17.2097C6.91371 17.2392 6.9889 17.2545 7.06487 17.2545C7.14084 17.2545 7.21604 17.2392 7.28602 17.2097C7.35601 17.1802 7.41938 17.1369 7.47237 17.0825L13.9499 10.4362C14.0636 10.3195 14.1273 10.163 14.1273 9.99997C14.1273 9.83698 14.0636 9.68044 13.9499 9.56372L7.47237 2.91747C7.41938 2.86304 7.35601 2.81978 7.28602 2.79024C7.21604 2.7607 7.14084 2.74548 7.06487 2.74548C6.9889 2.74548 6.91371 2.7607 6.84372 2.79024C6.77373 2.81978 6.71037 2.86304 6.65737 2.91747V2.91622Z" fill="#514A7E"/>
</svg>
