<svg width="25" height="25" viewBox="0 0 25 25" fill="none" xmlns="http://www.w3.org/2000/svg">
<path d="M12.4998 11.8056C13.4612 11.8056 14.4011 11.5205 15.2005 10.9864C15.9999 10.4522 16.6229 9.69301 16.9909 8.80475C17.3588 7.9165 17.4551 6.9391 17.2675 5.99613C17.0799 5.05317 16.6169 4.187 15.9371 3.50716C15.2573 2.82732 14.3911 2.36435 13.4481 2.17678C12.5052 1.98921 11.5278 2.08548 10.6395 2.45341C9.75126 2.82133 8.99206 3.44439 8.45792 4.2438C7.92377 5.0432 7.63867 5.98305 7.63867 6.94449C7.63867 8.23373 8.15082 9.47018 9.06246 10.3818C9.97409 11.2934 11.2105 11.8056 12.4998 11.8056ZM12.4998 3.47227C13.1865 3.47227 13.8578 3.67591 14.4288 4.05744C14.9999 4.43897 15.4449 4.98126 15.7077 5.61573C15.9705 6.25019 16.0393 6.94834 15.9053 7.62188C15.7713 8.29543 15.4406 8.91412 14.955 9.39972C14.4694 9.88532 13.8507 10.216 13.1772 10.35C12.5036 10.484 11.8055 10.4152 11.171 10.1524C10.5366 9.8896 9.99427 9.44456 9.61274 8.87355C9.2312 8.30255 9.02756 7.63123 9.02756 6.94449C9.02756 6.0236 9.39338 5.14042 10.0446 4.48926C10.6957 3.83809 11.5789 3.47227 12.4998 3.47227Z" fill="#FFFDF5"/>
<path d="M21.1592 16.9236C20.0455 15.7465 18.7035 14.8089 17.2151 14.1681C15.7268 13.5274 14.1234 13.1969 12.5029 13.1969C10.8825 13.1969 9.27911 13.5274 7.79075 14.1681C6.30239 14.8089 4.96036 15.7465 3.84668 16.9236C3.60523 17.1815 3.47113 17.5217 3.47168 17.8749V21.5277C3.47168 21.8961 3.61801 22.2493 3.87848 22.5098C4.13894 22.7703 4.49221 22.9166 4.86057 22.9166H20.1383C20.5067 22.9166 20.86 22.7703 21.1204 22.5098C21.3809 22.2493 21.5272 21.8961 21.5272 21.5277V17.8749C21.5297 17.5226 21.3981 17.1825 21.1592 16.9236ZM20.1383 21.5277H4.86057V17.868C5.84476 16.8317 7.02952 16.0064 8.34276 15.4425C9.65601 14.8786 11.0703 14.5878 12.4995 14.5878C13.9287 14.5878 15.3429 14.8786 16.6562 15.4425C17.9694 16.0064 19.1542 16.8317 20.1383 17.868V21.5277Z" fill="#FFFDF5"/>
</svg>
